<svg width="2991" height="697" viewBox="0 0 2991 697" fill="none" xmlns="http://www.w3.org/2000/svg">
<path fill-rule="evenodd" clip-rule="evenodd" d="M207.473 71.75C198.227 111.213 190.381 143.815 190.039 144.201C189.696 144.586 179.291 135.617 166.916 124.269C145.855 104.955 120.354 82.423 95.9112 61.529C90.1402 56.596 77.5422 45.571 67.9172 37.029C49.4552 20.647 46.1702 17.878 47.1172 19.5C47.6702 20.449 59.7112 58.616 93.9662 168C102.319 194.675 109.365 216.858 109.623 217.296C109.881 217.735 111.966 216.373 114.255 214.27C131.604 198.335 161.968 180.069 182.589 173.162C200.72 167.09 211.908 165.506 236.417 165.543C254.826 165.57 260.519 165.949 271.298 167.865C293.966 171.895 311.492 177.714 330.917 187.66C383.671 214.67 421.177 268.425 430.344 330.162C431.209 335.989 431.917 342.192 431.917 343.946C431.917 346.518 432.255 347.032 433.667 346.604C434.629 346.313 442.842 343.834 451.917 341.095C460.992 338.357 474.911 334.065 482.849 331.558C490.787 329.051 497.874 327 498.599 327C500.425 327 500.26 325.22 498.398 324.823C496.102 324.335 428.974 292.575 429.021 292C429.043 291.725 431.842 289.076 435.239 286.113C438.637 283.149 452.005 271.449 464.946 260.113C477.887 248.776 490.198 238.082 492.304 236.349L496.133 233.198L487.775 232.629C483.178 232.317 461.649 231.792 439.932 231.462C418.215 231.133 400.288 230.705 400.095 230.511C399.634 230.051 410.22 213.579 431.22 182.076C456.341 144.393 464.33 131.62 462.238 132.484C461.236 132.898 451.192 136.74 439.917 141.022C399.328 156.437 377.15 164.918 361.936 170.843C353.422 174.159 346.348 176.764 346.216 176.633C345.835 176.252 367.467 82.764 373.99 56.603C375.621 50.059 376.833 44.583 376.683 44.432C375.872 43.621 358.724 59.82 317.746 100.109L272.076 145.011L268.9 134.756C267.153 129.115 256.767 97.449 245.82 64.388C234.873 31.326 225.917 3.313 225.917 2.138C225.917 0.962 225.549 0 225.1 0C224.651 0 216.718 32.287 207.473 71.75ZM227.417 191.667C186.348 195.065 149.797 212.406 115.678 244.68C108.71 251.27 107.539 252 103.928 252C98.9552 252 96.6902 249.904 94.6002 243.37C93.7432 240.692 90.7452 231.188 87.9372 222.25C85.1292 213.313 82.5082 206 82.1122 206C80.7432 206 62.0092 220.532 53.9512 227.845C27.0322 252.274 7.82822 286.922 1.86122 321.828C-2.47378 347.183 0.712222 371.874 11.9602 400.108C14.1362 405.571 15.9172 410.692 15.9172 411.489C15.9172 412.286 13.8292 416.166 11.2762 420.112C4.48623 430.609 3.45721 434.749 5.42821 443.656C7.07121 451.081 14.4642 466.825 18.1512 470.749C20.0372 472.757 21.2282 473 29.1682 473C37.5502 473 38.2312 473.161 40.8072 475.75C43.3942 478.351 43.6062 479.282 44.7092 492.929C45.3512 500.866 46.2232 507.671 46.6462 508.051C47.0702 508.432 52.2542 509.022 58.1672 509.362L68.9172 509.981V503.445C68.9172 497.839 69.2662 496.56 71.3722 494.455C72.7222 493.105 74.9922 492 76.4172 492C77.8422 492 80.1122 493.105 81.4622 494.455C83.6042 496.596 83.9172 497.808 83.9172 503.955V511H97.9172H111.917V504.189C111.917 496.004 113.922 493 119.383 493C124.631 493 126.917 496.608 126.916 504.885L126.914 511.5L141.916 511.2L156.917 510.9V503.45C156.917 494.72 158.662 492 164.262 492C169.517 492 171.318 494.801 171.766 503.677L172.145 511.177L182.781 510.561C206.293 509.2 208.745 508.886 209.441 507.152C209.805 506.243 211.667 501.043 213.578 495.595C219.222 479.509 226.448 470.334 237.297 465.479C242.147 463.308 244.001 463.155 272.417 462.579C288.917 462.245 307.424 461.702 313.543 461.373L324.669 460.776L323.196 455.138C321.132 447.233 321.815 436.714 324.763 431C331.62 417.711 345.897 410.114 358.812 412.884C367.33 414.711 373.081 418.054 380.682 425.596L387.947 432.804L390.474 428.493C394.797 421.116 399.597 408.002 402.548 395.5C405.244 384.082 405.38 382.36 405.357 360C405.333 338.359 405.119 335.503 402.648 323.898C393.599 281.395 370.124 244.715 336.557 220.632C308.873 200.77 263.367 188.693 227.417 191.667ZM274.846 311.962C278.663 314.005 279.417 318.545 279.417 339.5C279.417 361.727 278.093 370.68 272.872 383.752C263.643 406.862 244.685 421.907 218.917 426.572C204.937 429.103 191.838 427.878 177.675 422.713C155.79 414.732 139.326 396.349 133.939 373.876C132.835 369.269 131.928 363.613 131.924 361.306C131.911 353.474 131.499 353.662 182.917 337.994C249.785 317.617 250.479 317.404 260.917 314.112C271.63 310.733 272.344 310.623 274.846 311.962ZM42.5172 330.337C52.3622 335.472 65.1422 342.073 70.9172 345.007C88.3902 353.883 88.3752 353.863 86.8042 366.375C84.1352 387.632 75.8322 403.851 64.0832 410.757C60.0462 413.13 58.3392 413.5 51.4172 413.5C42.0962 413.5 37.6672 411.75 31.5792 405.662C26.9842 401.067 21.9312 390.51 19.2972 380C16.6722 369.526 16.6722 340.54 19.2972 331C20.7322 325.786 23.1852 321 24.4222 321C24.5292 321 32.6722 325.201 42.5172 330.337ZM108.183 399.25C110.854 401.276 130.917 443.276 130.917 446.842C130.917 450.452 128.14 454.833 124.737 456.593C119.999 459.043 114.791 457.917 108.533 453.09C105.618 450.84 102.265 449 101.083 449C99.9012 449 96.8082 450.623 94.2102 452.606C89.9102 455.888 89.0372 456.17 84.5102 455.735C80.5232 455.352 78.9782 454.633 76.7262 452.113C75.1812 450.383 73.9172 448.153 73.9172 447.156C73.9172 445.315 98.5362 403.184 101.571 399.83C103.502 397.696 105.862 397.489 108.183 399.25ZM345.372 436.455C343.467 438.359 342.917 439.955 342.917 443.572C342.917 448.573 342.988 448.666 355.02 459.5C362.086 465.862 364.383 471.615 364.401 483C364.416 491.636 364.16 492.936 361.595 497.3C358.349 502.824 353.623 505.645 349.394 504.584C343.806 503.181 339.924 497.163 336.906 485.222L335.825 480.943L330.621 481.532C320.574 482.669 320.916 482.431 320.929 488.269C320.955 499.727 325.596 510.678 333.478 517.882C340.203 524.028 346.648 526.379 355.258 525.825C387.978 523.722 399.295 473.125 373.321 445.07C363.647 434.621 351.079 430.747 345.372 436.455ZM257.244 485.624C254.68 489.537 256.283 495.399 262.943 506.46C274.431 525.541 275.113 529.787 274.71 579.75C274.502 605.489 274.734 616.001 275.51 616C276.934 616 290.149 606.762 295.917 601.736C306.631 592.398 314.917 580.159 314.917 573.671C314.917 571.803 313.535 566.951 311.845 562.888C304.285 544.704 299.547 522.984 298.056 499.677C297.569 492.075 296.777 485.49 296.294 485.044C295.812 484.599 287.178 484.013 277.108 483.743L258.798 483.251L257.244 485.624ZM233.584 509.667C233.217 510.033 232.907 511.271 232.895 512.417C232.859 515.806 229.466 522.297 225.829 525.934C220.602 531.161 215.819 532.762 201.906 533.94C162.405 537.287 127.627 537.424 69.9132 534.459C39.6612 532.905 35.3022 532.056 30.1162 526.706C27.0522 523.544 23.9172 516.55 23.9172 512.874C23.9172 510.489 23.4262 510.521 19.5712 513.159C14.2022 516.833 9.83521 521.327 7.57921 525.5C5.45921 529.422 5.41121 530.452 5.13121 578.369C4.81521 632.291 4.93122 633.559 10.9382 641.719C15.9712 648.554 23.9082 651.866 37.4222 652.767L48.4172 653.5L48.9242 673C49.2042 683.725 49.8082 693.27 50.2672 694.212C52.7232 699.248 57.7252 697.016 67.8962 686.346C72.0092 682.031 81.3652 672.272 88.6882 664.661L102.001 650.821L165.709 651.161L229.417 651.5L234.417 649.199C240.408 646.441 245.314 641.939 248.255 636.5C250.374 632.58 250.423 631.535 250.704 584.132C251.016 531.468 250.886 529.946 245.358 521.443C243.907 519.211 240.764 516.148 238.372 514.635C235.546 512.847 234.218 511.379 234.578 510.442C235.163 508.917 234.697 508.554 233.584 509.667ZM214.994 556.923C217.534 559.463 217.917 560.586 217.917 565.489C217.917 568.592 217.431 572.04 216.837 573.15C214.231 578.019 214.507 578.004 128.699 577.944C69.2492 577.902 47.5092 577.577 44.9172 576.694C40.0842 575.045 37.6212 570.149 38.3292 563.595C38.6672 560.469 39.6582 557.84 41.0632 556.345L43.2662 554H127.668H212.071L214.994 556.923ZM177.613 598.956C179.907 600.355 181 601.923 181.486 604.516C182.601 610.458 181.36 616.222 178.423 618.748L175.805 621H110.295C67.2772 621 44.1252 620.646 42.8622 619.97C39.5412 618.193 37.6432 613.2 38.1772 607.644C38.5662 603.602 39.2752 602.069 41.8042 599.809L44.9492 597L109.683 597.004C172.084 597.007 174.532 597.078 177.613 598.956Z" fill="#1F1F1F"/>
<path d="M2859.32 558.668C2842.54 558.668 2826.37 556.725 2810.82 552.838C2795.28 548.951 2781.32 543.21 2768.95 535.613C2756.76 528.016 2747.05 518.565 2739.8 507.258C2732.74 495.775 2729.2 482.436 2729.2 467.243C2729.2 466.536 2729.2 465.741 2729.2 464.858C2729.2 463.798 2729.2 463.003 2729.2 462.473H2810.82C2810.82 463.003 2810.82 463.621 2810.82 464.328C2810.82 464.858 2810.82 465.476 2810.82 466.183C2810.82 476.43 2815.33 483.938 2824.34 488.708C2833.53 493.478 2845.89 495.863 2861.44 495.863C2869.57 495.863 2877.34 495.068 2884.76 493.478C2892.36 491.711 2898.54 488.973 2903.31 485.263C2908.26 481.376 2910.73 476.518 2910.73 470.688C2910.73 461.325 2905.52 454.7 2895.09 450.813C2884.85 446.926 2868.33 443.04 2845.54 439.153C2832.64 437.033 2819.57 434.03 2806.32 430.143C2793.07 426.256 2780.88 421.133 2769.75 414.773C2758.62 408.236 2749.7 400.021 2742.98 390.128C2736.27 380.058 2732.91 367.868 2732.91 353.558C2732.91 334.478 2738.66 318.401 2750.14 305.328C2761.8 292.255 2777.26 282.361 2796.51 275.648C2815.77 268.935 2836.97 265.578 2860.11 265.578C2882.2 265.578 2902.78 269.288 2921.86 276.708C2940.94 283.951 2956.4 294.463 2968.23 308.243C2980.07 321.846 2985.99 338.276 2985.99 357.533C2985.99 357.886 2985.99 358.416 2985.99 359.123C2985.99 359.83 2985.99 360.536 2985.99 361.243H2905.16C2905.16 360.536 2905.16 359.918 2905.16 359.388C2905.16 358.858 2905.16 358.416 2905.16 358.063C2905.16 350.996 2902.87 345.255 2898.27 340.838C2893.86 336.421 2888.2 333.153 2881.31 331.033C2874.42 328.736 2867.27 327.588 2859.85 327.588C2853.14 327.588 2846.16 328.383 2838.91 329.973C2831.85 331.386 2825.84 333.86 2820.89 337.393C2815.95 340.75 2813.47 345.52 2813.47 351.703C2813.47 357.71 2816.12 362.656 2821.42 366.543C2826.72 370.253 2834.14 373.345 2843.68 375.818C2853.22 378.115 2864.27 380.323 2876.81 382.443C2888.65 384.386 2901.1 387.125 2914.17 390.658C2927.42 394.015 2939.79 398.873 2951.27 405.233C2962.93 411.416 2972.3 419.631 2979.36 429.878C2986.61 439.948 2990.23 452.756 2990.23 468.303C2990.23 484.38 2986.52 498.16 2979.1 509.643C2971.68 521.126 2961.61 530.49 2948.89 537.733C2936.35 544.8 2922.3 550.011 2906.75 553.368C2891.38 556.901 2875.57 558.668 2859.32 558.668Z" fill="#1F1F1F"/>
<path d="M2560.61 558.403C2538.35 558.403 2517.94 552.485 2499.39 540.648C2480.84 528.812 2466 512.823 2454.87 492.683C2443.74 472.367 2438.18 449.577 2438.18 424.313C2438.18 423.607 2438.18 422.988 2438.18 422.458C2438.18 421.752 2438.18 420.957 2438.18 420.073L2473.69 419.278C2473.69 419.808 2473.69 420.338 2473.69 420.868C2473.69 421.398 2473.69 421.928 2473.69 422.458C2473.69 435.532 2476.87 447.015 2483.23 456.908C2489.59 466.625 2497.8 474.133 2507.87 479.433C2517.94 484.733 2528.45 487.383 2539.41 487.383C2557.43 487.383 2573.06 481.2 2586.31 468.833C2599.74 456.29 2606.45 436.768 2606.45 410.268C2606.45 383.768 2599.83 364.512 2586.58 352.498C2573.33 340.308 2557.6 334.213 2539.41 334.213C2528.45 334.213 2517.94 336.863 2507.87 342.163C2497.8 347.287 2489.59 354.618 2483.23 364.158C2476.87 373.698 2473.69 385.093 2473.69 398.343L2438.18 396.223C2438.18 370.783 2443.74 348.347 2454.87 328.913C2466 309.303 2480.84 293.933 2499.39 282.803C2517.94 271.497 2538.35 265.843 2560.61 265.843C2583.4 265.843 2604.68 271.408 2624.47 282.538C2644.26 293.668 2660.25 310.01 2672.44 331.563C2684.8 353.117 2690.99 379.352 2690.99 410.268C2690.99 442.598 2684.98 469.805 2672.97 491.888C2660.95 513.795 2645.05 530.402 2625.27 541.708C2605.48 552.838 2583.93 558.403 2560.61 558.403ZM2391.27 552.308V138.113H2473.69V552.308H2391.27Z" fill="#1F1F1F"/>
<path d="M2155.27 557.608C2135.3 557.608 2118.87 554.428 2105.98 548.068C2093.08 541.531 2082.92 532.786 2075.5 521.833C2068.08 510.88 2062.87 498.69 2059.87 485.263C2056.86 471.836 2055.36 458.233 2055.36 444.453C2055.36 438.093 2055.36 431.38 2055.36 424.313C2055.36 417.246 2055.36 410.003 2055.36 402.583V270.878H2137.51V389.598C2137.51 395.605 2137.51 401.435 2137.51 407.088C2137.51 412.741 2137.51 417.953 2137.51 422.723C2137.51 434.56 2138.84 445.425 2141.49 455.318C2144.14 465.211 2149 473.161 2156.06 479.168C2163.31 485.175 2173.55 488.178 2186.8 488.178C2199.7 488.178 2210.65 484.556 2219.66 477.313C2228.67 469.893 2235.56 460.441 2240.33 448.958C2245.1 437.475 2247.49 425.638 2247.49 413.448L2270.54 432.263C2270.54 449.93 2267.8 466.36 2262.33 481.553C2257.03 496.746 2249.43 510.085 2239.54 521.568C2229.64 532.875 2217.54 541.708 2203.23 548.068C2189.1 554.428 2173.11 557.608 2155.27 557.608ZM2247.49 552.308V270.878H2329.64V552.308H2247.49Z" fill="#1F1F1F"/>
<path d="M1857.91 558.669C1829.65 558.669 1804.74 554.164 1783.18 545.154C1761.81 536.144 1745.02 522.717 1732.83 504.874C1720.82 486.854 1714.81 464.505 1714.81 437.829C1714.81 435.002 1714.81 432.44 1714.81 430.144C1714.81 427.67 1714.81 425.02 1714.81 422.194H1797.23C1797.23 424.844 1797.23 427.229 1797.23 429.349C1797.23 431.292 1797.23 433.589 1797.23 436.239C1797.23 454.435 1802.35 468.392 1812.6 478.109C1822.84 487.825 1838.04 492.684 1858.18 492.684C1878.49 492.684 1894.13 489.504 1905.08 483.144C1916.04 476.607 1921.51 465.919 1921.51 451.079C1921.51 440.655 1917.36 431.469 1909.06 423.519C1900.93 415.569 1889.8 408.502 1875.67 402.319C1861.71 395.959 1845.72 390.04 1827.7 384.564C1808.09 378.38 1789.9 370.254 1773.11 360.184C1756.33 350.114 1742.81 337.305 1732.57 321.759C1722.5 306.212 1717.46 287.044 1717.46 264.254C1717.46 241.287 1723.56 221.765 1735.75 205.689C1747.94 189.435 1764.54 177.069 1785.57 168.589C1806.59 159.932 1830.35 155.604 1856.85 155.604C1884.59 155.604 1909.06 159.932 1930.26 168.589C1951.63 177.069 1968.33 189.877 1980.34 207.014C1992.53 223.974 1998.63 245.174 1998.63 270.614C1998.63 273.44 1998.63 276.09 1998.63 278.564C1998.63 280.86 1998.63 283.51 1998.63 286.514H1916.48C1916.48 284.57 1916.48 282.539 1916.48 280.419C1916.48 278.299 1916.48 276.267 1916.48 274.324C1916.48 257.187 1911.71 244.025 1902.17 234.839C1892.8 225.652 1878.05 221.059 1857.91 221.059C1838.48 221.059 1823.37 224.592 1812.6 231.659C1802 238.725 1796.7 249.59 1796.7 264.254C1796.7 274.854 1800.5 283.864 1808.09 291.284C1815.87 298.704 1826.47 305.329 1839.89 311.159C1853.32 316.989 1868.6 322.819 1885.74 328.649C1909.06 336.775 1929.37 345.785 1946.69 355.679C1964.18 365.395 1977.69 377.674 1987.23 392.514C1996.77 407.177 2001.54 425.904 2001.54 448.694C2001.54 472.014 1995.54 491.889 1983.52 508.319C1971.51 524.749 1954.64 537.292 1932.91 545.949C1911.35 554.429 1886.36 558.669 1857.91 558.669Z" fill="#1F1F1F"/>
<path d="M1608.83 558.138C1598.05 558.138 1586.92 557.166 1575.44 555.223C1564.13 553.456 1553.53 549.835 1543.64 544.358C1533.92 538.705 1526.06 530.49 1520.05 519.713C1514.05 508.936 1511.04 494.715 1511.04 477.048C1511.04 473.161 1511.04 469.186 1511.04 465.123C1511.04 461.06 1511.04 456.996 1511.04 452.933V334.478H1446.12V270.878H1464.4C1475 270.878 1483.4 270.436 1489.58 269.553C1495.94 268.67 1500.62 266.461 1503.62 262.928C1506.8 259.218 1508.84 253.476 1509.72 245.703C1510.6 237.93 1511.04 227.241 1511.04 213.638V178.128H1593.46V270.878H1675.34V334.478H1593.46V435.708C1593.46 438.888 1593.46 441.98 1593.46 444.983C1593.46 447.986 1593.46 450.901 1593.46 453.728C1593.46 465.918 1594.87 475.811 1597.7 483.408C1600.7 491.005 1608.03 494.803 1619.69 494.803C1625.52 494.803 1631 494.273 1636.12 493.213C1641.42 492.153 1645.4 491.093 1648.05 490.033V551.778C1644.34 553.368 1639.13 554.781 1632.41 556.018C1625.7 557.431 1617.84 558.138 1608.83 558.138Z" fill="#1F1F1F"/>
<path d="M1267.29 558.403C1236.9 558.403 1210.14 552.131 1186.99 539.588C1163.85 527.044 1145.74 509.819 1132.67 487.913C1119.77 465.829 1113.32 440.389 1113.32 411.593C1113.32 382.973 1119.77 357.709 1132.67 335.803C1145.74 313.719 1163.85 296.583 1186.99 284.393C1210.14 272.026 1236.9 265.843 1267.29 265.843C1297.68 265.843 1324.44 272.026 1347.58 284.393C1370.73 296.583 1388.75 313.719 1401.64 335.803C1414.72 357.709 1421.25 382.973 1421.25 411.593C1421.25 440.389 1414.72 465.829 1401.64 487.913C1388.75 509.819 1370.73 527.044 1347.58 539.588C1324.44 552.131 1297.68 558.403 1267.29 558.403ZM1267.29 493.213C1281.6 493.213 1294.05 489.856 1304.65 483.143C1315.25 476.429 1323.47 466.978 1329.3 454.788C1335.13 442.421 1338.04 428.023 1338.04 411.593C1338.04 395.163 1335.13 380.941 1329.3 368.928C1323.47 356.738 1315.25 347.374 1304.65 340.838C1294.05 334.301 1281.6 331.033 1267.29 331.033C1253.16 331.033 1240.7 334.301 1229.92 340.838C1219.32 347.374 1211.11 356.738 1205.28 368.928C1199.45 380.941 1196.53 395.163 1196.53 411.593C1196.53 428.023 1199.45 442.421 1205.28 454.788C1211.11 466.978 1219.32 476.429 1229.92 483.143C1240.7 489.856 1253.16 493.213 1267.29 493.213Z" fill="#1F1F1F"/>
<path d="M984.419 552.308V270.878H1065.77V552.308H984.419ZM1024.96 225.033C1012.24 225.033 1001.11 221.676 991.574 214.963C982.21 208.25 977.529 198.798 977.529 186.608C977.529 174.241 982.21 164.701 991.574 157.988C1001.11 151.275 1012.24 147.918 1024.96 147.918C1037.86 147.918 1048.99 151.275 1058.35 157.988C1067.89 164.701 1072.66 174.241 1072.66 186.608C1072.66 198.975 1067.89 208.515 1058.35 215.228C1048.99 221.765 1037.86 225.033 1024.96 225.033Z" fill="#1F1F1F"/>
<path d="M649.885 552.309V161.434H808.355C849.342 161.434 879.905 170.797 900.045 189.524C920.362 208.074 930.52 234.839 930.52 269.819C930.52 289.959 926.634 307.184 918.86 321.494C911.264 335.627 901.812 346.58 890.505 354.354C879.375 362.127 868.599 366.455 858.175 367.339C868.952 368.045 879.11 370.784 888.65 375.554C898.367 380.147 906.317 387.479 912.5 397.549C918.684 407.619 921.775 421.134 921.775 438.094C921.775 450.637 921.775 463.004 921.775 475.194C921.775 487.384 921.775 499.839 921.775 512.559C921.775 521.215 922.394 529.254 923.63 536.674C925.044 543.917 927.075 549.129 929.725 552.309H847.31C845.014 548.775 843.159 543.475 841.745 536.409C840.332 529.165 839.625 521.215 839.625 512.559C839.625 501.252 839.625 490.475 839.625 480.229C839.625 469.805 839.625 458.94 839.625 447.634C839.625 432.264 835.65 420.427 827.7 412.124C819.75 403.644 807.03 399.404 789.54 399.404H708.45L730.445 373.169V552.309H649.885ZM730.445 365.749L708.45 335.804H790.6C801.2 335.804 810.652 333.419 818.955 328.649C827.259 323.879 833.795 317.077 838.565 308.244C843.512 299.41 845.985 289.075 845.985 277.239C845.985 260.632 840.95 247.735 830.88 238.549C820.987 229.362 807.03 224.769 789.01 224.769H706.595L730.445 198.004V365.749Z" fill="#1F1F1F"/>
</svg>
