<svg width="800" height="800" viewBox="0 0 800 800" fill="none" xmlns="http://www.w3.org/2000/svg">
<path fill-rule="evenodd" clip-rule="evenodd" d="M357.473 123.75C348.227 163.213 340.381 195.815 340.039 196.201C339.696 196.586 329.291 187.617 316.916 176.269C295.855 156.955 270.354 134.423 245.911 113.529C240.14 108.596 227.542 97.571 217.917 89.029C199.455 72.647 196.17 69.878 197.117 71.5C197.67 72.449 209.711 110.616 243.966 220C252.319 246.675 259.365 268.858 259.623 269.296C259.881 269.735 261.966 268.373 264.255 266.27C281.604 250.335 311.968 232.069 332.589 225.162C350.72 219.09 361.908 217.506 386.417 217.543C404.826 217.57 410.519 217.949 421.298 219.865C443.966 223.895 461.492 229.714 480.917 239.66C533.671 266.67 571.177 320.425 580.344 382.162C581.209 387.989 581.917 394.192 581.917 395.946C581.917 398.518 582.255 399.032 583.667 398.604C584.629 398.313 592.842 395.834 601.917 393.095C610.992 390.357 624.911 386.065 632.849 383.558C640.787 381.051 647.874 379 648.599 379C650.425 379 650.26 377.22 648.398 376.823C646.102 376.335 578.974 344.575 579.021 344C579.043 343.725 581.842 341.076 585.239 338.113C588.637 335.149 602.005 323.449 614.946 312.113C627.887 300.776 640.198 290.082 642.304 288.349L646.133 285.198L637.775 284.629C633.178 284.317 611.649 283.792 589.932 283.462C568.215 283.133 550.288 282.705 550.095 282.511C549.634 282.051 560.22 265.579 581.22 234.076C606.341 196.393 614.33 183.62 612.238 184.484C611.236 184.898 601.192 188.74 589.917 193.022C549.328 208.437 527.15 216.918 511.936 222.843C503.422 226.159 496.348 228.764 496.216 228.633C495.835 228.252 517.467 134.764 523.99 108.603C525.621 102.059 526.833 96.583 526.683 96.432C525.872 95.621 508.724 111.82 467.746 152.109L422.076 197.011L418.9 186.756C417.153 181.115 406.767 149.449 395.82 116.388C384.873 83.326 375.917 55.313 375.917 54.138C375.917 52.962 375.549 52 375.1 52C374.651 52 366.718 84.287 357.473 123.75ZM377.417 243.667C336.348 247.065 299.797 264.406 265.678 296.68C258.71 303.27 257.539 304 253.928 304C248.955 304 246.69 301.904 244.6 295.37C243.743 292.692 240.745 283.188 237.937 274.25C235.129 265.313 232.508 258 232.112 258C230.743 258 212.009 272.532 203.951 279.845C177.032 304.274 157.828 338.922 151.861 373.828C147.526 399.183 150.712 423.874 161.96 452.108C164.136 457.571 165.917 462.692 165.917 463.489C165.917 464.286 163.829 468.166 161.276 472.112C154.486 482.609 153.457 486.749 155.428 495.656C157.071 503.081 164.464 518.825 168.151 522.749C170.037 524.757 171.228 525 179.168 525C187.55 525 188.231 525.161 190.807 527.75C193.394 530.351 193.606 531.282 194.709 544.929C195.351 552.866 196.223 559.671 196.646 560.051C197.07 560.432 202.254 561.022 208.167 561.362L218.917 561.981V555.445C218.917 549.839 219.266 548.56 221.372 546.455C222.722 545.105 224.992 544 226.417 544C227.842 544 230.112 545.105 231.462 546.455C233.604 548.596 233.917 549.808 233.917 555.955V563H247.917H261.917V556.189C261.917 548.004 263.922 545 269.383 545C274.631 545 276.917 548.608 276.916 556.885L276.914 563.5L291.916 563.2L306.917 562.9V555.45C306.917 546.72 308.662 544 314.262 544C319.517 544 321.318 546.801 321.766 555.677L322.145 563.177L332.781 562.561C356.293 561.2 358.745 560.886 359.441 559.152C359.805 558.243 361.667 553.043 363.578 547.595C369.222 531.509 376.448 522.334 387.297 517.479C392.147 515.308 394.001 515.155 422.417 514.579C438.917 514.245 457.424 513.702 463.543 513.373L474.669 512.776L473.196 507.138C471.132 499.233 471.815 488.714 474.763 483C481.62 469.711 495.897 462.114 508.812 464.884C517.33 466.711 523.081 470.054 530.682 477.596L537.947 484.804L540.474 480.493C544.797 473.116 549.597 460.002 552.548 447.5C555.244 436.082 555.38 434.36 555.357 412C555.333 390.359 555.119 387.503 552.648 375.898C543.599 333.395 520.124 296.715 486.557 272.632C458.873 252.77 413.367 240.693 377.417 243.667ZM424.846 363.962C428.663 366.005 429.417 370.545 429.417 391.5C429.417 413.727 428.093 422.68 422.872 435.752C413.643 458.862 394.685 473.907 368.917 478.572C354.937 481.103 341.838 479.878 327.675 474.713C305.79 466.732 289.326 448.349 283.939 425.876C282.835 421.269 281.928 415.613 281.924 413.306C281.911 405.474 281.499 405.662 332.917 389.994C399.785 369.617 400.479 369.404 410.917 366.112C421.63 362.733 422.344 362.623 424.846 363.962ZM192.517 382.337C202.362 387.472 215.142 394.073 220.917 397.007C238.39 405.883 238.375 405.863 236.804 418.375C234.135 439.632 225.832 455.851 214.083 462.757C210.046 465.13 208.339 465.5 201.417 465.5C192.096 465.5 187.667 463.75 181.579 457.662C176.984 453.067 171.931 442.51 169.297 432C166.672 421.526 166.672 392.54 169.297 383C170.732 377.786 173.185 373 174.422 373C174.529 373 182.672 377.201 192.517 382.337ZM258.183 451.25C260.854 453.276 280.917 495.276 280.917 498.842C280.917 502.452 278.14 506.833 274.737 508.593C269.999 511.043 264.791 509.917 258.533 505.09C255.618 502.84 252.265 501 251.083 501C249.901 501 246.808 502.623 244.21 504.606C239.91 507.888 239.037 508.17 234.51 507.735C230.523 507.352 228.978 506.633 226.726 504.113C225.181 502.383 223.917 500.153 223.917 499.156C223.917 497.315 248.536 455.184 251.571 451.83C253.502 449.696 255.862 449.489 258.183 451.25ZM495.372 488.455C493.467 490.359 492.917 491.955 492.917 495.572C492.917 500.573 492.988 500.666 505.02 511.5C512.086 517.862 514.383 523.615 514.401 535C514.416 543.636 514.16 544.936 511.595 549.3C508.349 554.824 503.623 557.645 499.394 556.584C493.806 555.181 489.924 549.163 486.906 537.222L485.825 532.943L480.621 533.532C470.574 534.669 470.916 534.431 470.929 540.269C470.955 551.727 475.596 562.678 483.478 569.882C490.203 576.028 496.648 578.379 505.258 577.825C537.978 575.722 549.295 525.125 523.321 497.07C513.647 486.621 501.079 482.747 495.372 488.455ZM407.244 537.624C404.68 541.537 406.283 547.399 412.943 558.46C424.431 577.541 425.113 581.787 424.71 631.75C424.502 657.489 424.734 668.001 425.51 668C426.934 668 440.149 658.762 445.917 653.736C456.631 644.398 464.917 632.159 464.917 625.671C464.917 623.803 463.535 618.951 461.845 614.888C454.285 596.704 449.547 574.984 448.056 551.677C447.569 544.075 446.777 537.49 446.294 537.044C445.812 536.599 437.178 536.013 427.108 535.743L408.798 535.251L407.244 537.624ZM383.584 561.667C383.217 562.033 382.907 563.271 382.895 564.417C382.859 567.806 379.466 574.297 375.829 577.934C370.602 583.161 365.819 584.762 351.906 585.94C312.405 589.287 277.627 589.424 219.913 586.459C189.661 584.905 185.302 584.056 180.116 578.706C177.052 575.544 173.917 568.55 173.917 564.874C173.917 562.489 173.426 562.521 169.571 565.159C164.202 568.833 159.835 573.327 157.579 577.5C155.459 581.422 155.411 582.452 155.131 630.369C154.815 684.291 154.931 685.559 160.938 693.719C165.971 700.554 173.908 703.866 187.422 704.767L198.417 705.5L198.924 725C199.204 735.725 199.808 745.27 200.267 746.212C202.723 751.248 207.725 749.016 217.896 738.346C222.009 734.031 231.365 724.272 238.688 716.661L252.001 702.821L315.709 703.161L379.417 703.5L384.417 701.199C390.408 698.441 395.314 693.939 398.255 688.5C400.374 684.58 400.423 683.535 400.704 636.132C401.016 583.468 400.886 581.946 395.358 573.443C393.907 571.211 390.764 568.148 388.372 566.635C385.546 564.847 384.218 563.379 384.578 562.442C385.163 560.917 384.697 560.554 383.584 561.667ZM364.994 608.923C367.534 611.463 367.917 612.586 367.917 617.489C367.917 620.592 367.431 624.04 366.837 625.15C364.231 630.019 364.507 630.004 278.699 629.944C219.249 629.902 197.509 629.577 194.917 628.694C190.084 627.045 187.621 622.149 188.329 615.595C188.667 612.469 189.658 609.84 191.063 608.345L193.266 606H277.668H362.071L364.994 608.923ZM327.613 650.956C329.907 652.355 331 653.923 331.486 656.516C332.601 662.458 331.36 668.222 328.423 670.748L325.805 673H260.295C217.277 673 194.125 672.646 192.862 671.97C189.541 670.193 187.643 665.2 188.177 659.644C188.566 655.602 189.275 654.069 191.804 651.809L194.949 649L259.683 649.004C322.084 649.007 324.532 649.078 327.613 650.956Z" fill="#1F1F1F"/>
</svg>
